<?xml version="1.0" encoding="utf-8"?>
<!-- Generator: Adobe Illustrator 28.1.0, SVG Export Plug-In . SVG Version: 6.00 Build 0)  -->
<svg version="1.1" id="Layer_1" xmlns="http://www.w3.org/2000/svg" xmlns:xlink="http://www.w3.org/1999/xlink" x="0px" y="0px"
	 viewBox="0 0 244 244" style="enable-background:new 0 0 244 244;" xml:space="preserve">
<style type="text/css">
	.st0{fill:#B26440;}
</style>
<g>
	<g>
		<path class="st0" d="M15.3,104.3l-1.1-0.2l0.6-3.3l1.1,0.2L15.3,104.3z"/>
		<path class="st0" d="M22.3,87.2L14.1,84l0.6-1.6l6.6,0.4c0.6,0,1.1,0.1,1.4,0.1c-0.3-0.2-0.6-0.5-1.1-1l-4.9-4.2l0.6-1.5l8.2,3.2
			l-0.4,1l-6.9-2.7l5.9,5.1l-0.4,1l-7.9-0.4l7,2.8L22.3,87.2z"/>
		<path class="st0" d="M25.5,69.5c-1.3-0.8-2-1.7-2.4-2.8s-0.1-2.2,0.5-3.3c0.4-0.7,1-1.2,1.6-1.6c0.7-0.4,1.4-0.5,2.2-0.5
			c0.8,0.1,1.5,0.3,2.3,0.8c0.8,0.5,1.4,1,1.8,1.7c0.4,0.7,0.6,1.4,0.6,2.1c0,0.8-0.2,1.5-0.6,2.1c-0.4,0.7-1,1.2-1.7,1.6
			c-0.7,0.4-1.4,0.5-2.2,0.4C26.9,70.1,26.1,69.9,25.5,69.5z M26.1,68.5c0.9,0.5,1.8,0.7,2.6,0.5c0.8-0.2,1.4-0.6,1.9-1.4
			c0.5-0.8,0.6-1.5,0.3-2.3c-0.2-0.8-0.8-1.5-1.8-2.1c-0.6-0.4-1.2-0.6-1.8-0.7c-0.6-0.1-1.1,0-1.6,0.3c-0.5,0.3-0.9,0.6-1.2,1.1
			c-0.4,0.7-0.5,1.5-0.4,2.3C24.3,67.1,25,67.8,26.1,68.5z"/>
		<path class="st0" d="M39.9,55.8l-6-4.9L32,53.1l-0.8-0.7l4.4-5.4l0.8,0.7L34.6,50l6,4.9L39.9,55.8z"/>
		<path class="st0" d="M45.9,44.8l0.7-0.8c0.3,0.3,0.7,0.5,1,0.6s0.7,0,1.1-0.1c0.4-0.1,0.8-0.4,1.2-0.7c0.3-0.3,0.6-0.6,0.7-0.9
			c0.2-0.3,0.2-0.6,0.2-0.9s-0.1-0.5-0.3-0.7c-0.2-0.2-0.4-0.3-0.7-0.4c-0.3,0-0.6,0-0.9,0.2c-0.2,0.1-0.7,0.3-1.4,0.8
			c-0.7,0.4-1.3,0.7-1.6,0.8c-0.5,0.1-0.9,0.1-1.2,0s-0.7-0.3-1-0.6c-0.3-0.3-0.5-0.7-0.6-1.2c-0.1-0.5,0-0.9,0.2-1.4
			c0.2-0.5,0.5-0.9,1-1.3c0.5-0.4,1-0.8,1.5-0.9c0.5-0.2,1-0.2,1.5-0.1s0.9,0.4,1.3,0.7l-0.8,0.8c-0.4-0.4-0.9-0.5-1.3-0.5
			c-0.4,0-0.9,0.3-1.4,0.7c-0.5,0.5-0.8,0.9-0.9,1.3c-0.1,0.4,0,0.7,0.3,1c0.2,0.2,0.5,0.3,0.8,0.3c0.3,0,0.9-0.2,1.7-0.7
			c0.8-0.5,1.4-0.8,1.8-0.9c0.5-0.2,1-0.2,1.4-0.1c0.4,0.1,0.8,0.3,1.1,0.7c0.3,0.3,0.5,0.8,0.6,1.2c0.1,0.5,0,1-0.2,1.5
			c-0.2,0.5-0.6,1-1,1.4c-0.6,0.5-1.2,0.9-1.7,1.1c-0.6,0.2-1.1,0.2-1.6,0.1C46.8,45.5,46.3,45.3,45.9,44.8z"/>
		<path class="st0" d="M68.5,31l-4.2-7.8l2.7-1.5c0.6-0.3,1.1-0.5,1.4-0.6c0.5-0.1,1-0.2,1.4-0.1c0.6,0.1,1.1,0.4,1.6,0.8
			s0.9,1,1.3,1.7c0.3,0.6,0.5,1.1,0.6,1.7c0.1,0.5,0.1,1,0.1,1.4s-0.2,0.8-0.3,1.1c-0.2,0.3-0.4,0.6-0.7,0.9
			c-0.3,0.3-0.7,0.6-1.2,0.8L68.5,31z M69.1,29.5l1.7-0.9c0.5-0.3,0.9-0.5,1.1-0.8c0.2-0.3,0.4-0.5,0.5-0.8c0.1-0.4,0.1-0.8,0-1.3
			c-0.1-0.5-0.3-1-0.6-1.6c-0.4-0.8-0.9-1.4-1.4-1.7c-0.5-0.3-1-0.4-1.4-0.3c-0.3,0-0.8,0.2-1.4,0.6l-1.6,0.9L69.1,29.5z"/>
		<path class="st0" d="M82.9,24l-3-8.3l6-2.2l0.4,1l-4.9,1.8l0.9,2.5l4.6-1.7l0.4,1l-4.6,1.7l1,2.8l5.1-1.9l0.4,1L82.9,24z"/>
		<path class="st0" d="M107.7,17.5l-1-8.8l1.2-0.1l0.9,7.7l4.3-0.5l0.1,1L107.7,17.5z"/>
		<path class="st0" d="M121.6,8.9l0-1.3l1.2,0l0,1c0,0.5-0.1,0.9-0.2,1.2c-0.2,0.3-0.5,0.6-0.8,0.7l-0.3-0.4
			c0.2-0.1,0.4-0.2,0.5-0.4s0.2-0.4,0.2-0.8L121.6,8.9z"/>
		<path class="st0" d="M131.5,16.9l1-8.8l6.3,0.8l-0.1,1l-5.2-0.6l-0.3,2.7l4.9,0.6l-0.1,1l-4.9-0.6l-0.4,3l5.4,0.6l-0.1,1
			L131.5,16.9z M135,7.9l1-1.6l1.4,0.2L135.9,8L135,7.9z"/>
		<path class="st0" d="M153.2,20.2c0.4,0.5,0.8,0.9,1.2,1.2l-0.5,0.7c-0.6-0.4-1.1-0.9-1.5-1.6c-0.7,0.2-1.5,0.2-2.2-0.1
			c-0.8-0.2-1.4-0.6-1.9-1.1c-0.5-0.5-0.9-1.2-1-2c-0.2-0.8-0.1-1.6,0.1-2.4c0.2-0.8,0.6-1.6,1.1-2.2s1.2-1,1.9-1.2
			c0.7-0.2,1.5-0.2,2.3,0c0.8,0.2,1.4,0.6,2,1.1s0.9,1.2,1,2c0.1,0.8,0.1,1.6-0.1,2.4c-0.2,0.7-0.5,1.3-0.8,1.8
			C154.2,19.5,153.8,19.9,153.2,20.2z M151.1,18.1c0.6,0.4,1.1,0.8,1.4,1.3c0.8-0.4,1.4-1.2,1.7-2.4c0.2-0.7,0.2-1.3,0.1-1.9
			c-0.1-0.6-0.3-1.1-0.7-1.5s-0.8-0.7-1.4-0.8c-0.8-0.2-1.6-0.1-2.3,0.3c-0.7,0.4-1.2,1.2-1.5,2.3c-0.3,1.1-0.3,2,0.1,2.8
			s1,1.2,1.9,1.5c0.4,0.1,0.8,0.1,1.2,0.1c-0.3-0.3-0.6-0.6-1-0.8L151.1,18.1z"/>
		<path class="st0" d="M171.2,18.8l1.1,0.5l-2.1,4.6c-0.4,0.8-0.7,1.4-1.1,1.8s-0.9,0.6-1.5,0.7c-0.6,0.1-1.3-0.1-2.1-0.4
			c-0.8-0.3-1.3-0.8-1.7-1.2c-0.4-0.5-0.5-1-0.5-1.6c0-0.6,0.2-1.3,0.6-2.2l2.1-4.6l1.1,0.5l-2.1,4.6c-0.3,0.7-0.5,1.2-0.5,1.6
			c0,0.4,0.1,0.7,0.3,1.1c0.2,0.3,0.6,0.6,1,0.8c0.8,0.4,1.4,0.4,1.9,0.2c0.5-0.2,1-0.8,1.4-1.8L171.2,18.8z"/>
		<path class="st0" d="M176.7,31.8l4.6-7.5l1,0.6l-4.6,7.5L176.7,31.8z"/>
		<path class="st0" d="M185.2,37.5l5.5-6.9l2.6,2.1c0.5,0.4,0.8,0.7,1,0.9c0.3,0.3,0.5,0.7,0.6,1c0.1,0.3,0.1,0.7,0,1.1
			s-0.3,0.8-0.5,1.1c-0.5,0.6-1.1,0.9-1.7,1c-0.7,0.1-1.5-0.2-2.5-1l-1.8-1.4l-2.2,2.8L185.2,37.5z M189,34.6l1.8,1.4
			c0.6,0.5,1.1,0.7,1.5,0.7c0.4,0,0.8-0.2,1.1-0.6c0.2-0.3,0.4-0.6,0.4-0.9c0-0.3-0.1-0.6-0.3-0.9c-0.1-0.2-0.4-0.4-0.8-0.7
			l-1.8-1.4L189,34.6z"/>
		<path class="st0" d="M196.8,47.5l6.4-6l4.4,4.7l-0.8,0.7l-3.6-3.8l-2,1.9l3.3,3.6l-0.8,0.7l-3.3-3.6l-2.2,2.1l3.7,4l-0.8,0.7
			L196.8,47.5z"/>
		<path class="st0" d="M217.6,69.7l0.9-0.5l1.8,3.3l-2.9,1.6c-0.7-0.3-1.3-0.6-1.8-1.1c-0.5-0.4-0.9-0.9-1.2-1.5
			c-0.4-0.8-0.6-1.5-0.7-2.3s0.2-1.5,0.6-2.2c0.4-0.7,1-1.2,1.8-1.6c0.8-0.4,1.5-0.6,2.4-0.7c0.8,0,1.6,0.1,2.2,0.6
			c0.6,0.4,1.2,1,1.6,1.8c0.3,0.6,0.5,1.1,0.6,1.7c0.1,0.6,0,1-0.2,1.5c-0.2,0.4-0.5,0.9-0.9,1.3l-0.8-0.8c0.3-0.3,0.6-0.6,0.7-0.9
			s0.2-0.6,0.1-1c0-0.4-0.2-0.8-0.4-1.2c-0.3-0.5-0.6-0.8-0.9-1.1c-0.3-0.3-0.7-0.4-1-0.5c-0.3-0.1-0.7-0.1-1-0.1
			c-0.6,0.1-1.2,0.3-1.7,0.6c-0.7,0.4-1.2,0.8-1.5,1.3c-0.3,0.5-0.5,1-0.5,1.6c0,0.6,0.2,1.1,0.5,1.6c0.2,0.4,0.6,0.8,1,1.2
			s0.8,0.5,1.1,0.7l1.4-0.8L217.6,69.7z"/>
		<path class="st0" d="M220,82.7l8.3-3l1,2.9c0.2,0.6,0.4,1.2,0.4,1.5c0.1,0.5,0,1-0.2,1.4c-0.2,0.6-0.6,1.1-1.1,1.5
			c-0.5,0.4-1.1,0.8-1.9,1c-0.6,0.2-1.2,0.4-1.8,0.4s-1,0-1.4-0.1s-0.7-0.3-1-0.5c-0.3-0.2-0.5-0.5-0.8-0.8
			c-0.2-0.4-0.4-0.8-0.6-1.3L220,82.7z M221.3,83.4l0.6,1.8c0.2,0.5,0.4,1,0.6,1.2c0.2,0.3,0.4,0.5,0.7,0.6c0.4,0.2,0.8,0.2,1.3,0.2
			c0.5,0,1.1-0.1,1.7-0.4c0.9-0.3,1.5-0.7,1.8-1.2c0.4-0.5,0.5-0.9,0.6-1.4c0-0.3-0.1-0.8-0.3-1.5l-0.6-1.7L221.3,83.4z"/>
		<path class="st0" d="M224.5,96.9l9.3,1.6l0.2,1.2l-7.9,5.3l-0.3-1.3l2.4-1.5l-0.7-3.6l-2.8-0.4L224.5,96.9z M228.6,98.7l0.6,2.9
			l2.2-1.4c0.7-0.4,1.2-0.7,1.7-1c-0.6,0-1.2,0-1.7-0.1L228.6,98.7z"/>
		<path class="st0" d="M229.5,133.8l1.1,0.1l-0.4,3.3l-1.1-0.1L229.5,133.8z"/>
		<path class="st0" d="M223.1,152.2l8.4,2.8l-0.4,1.1l-8,2.2l6.6,2.2l-0.4,1.1l-8.4-2.8l0.4-1.1l8.1-2.2l-6.6-2.2L223.1,152.2z"/>
		<path class="st0" d="M221.5,168.7c1.3,0.7,2.1,1.6,2.5,2.6s0.3,2.2-0.3,3.3c-0.4,0.7-0.9,1.3-1.5,1.7c-0.6,0.4-1.4,0.6-2.1,0.6
			s-1.6-0.2-2.3-0.6c-0.8-0.4-1.4-0.9-1.9-1.6c-0.5-0.6-0.7-1.3-0.7-2.1s0.2-1.5,0.5-2.2c0.4-0.7,0.9-1.3,1.6-1.7
			c0.7-0.4,1.4-0.6,2.1-0.6C220,168.2,220.8,168.4,221.5,168.7z M220.9,169.8c-0.9-0.5-1.8-0.6-2.6-0.4c-0.8,0.2-1.4,0.7-1.8,1.5
			c-0.4,0.8-0.5,1.6-0.2,2.4c0.3,0.8,0.9,1.4,1.9,2c0.6,0.3,1.3,0.5,1.8,0.5c0.6,0,1.1-0.1,1.6-0.4c0.5-0.3,0.8-0.7,1.1-1.2
			c0.4-0.7,0.5-1.5,0.2-2.3S222.1,170.4,220.9,169.8z"/>
		<path class="st0" d="M211.7,182.8l-0.6,0.9c-0.4-0.2-0.8-0.3-1.1-0.3c-0.3,0-0.7,0.1-1.1,0.3c-0.4,0.2-0.7,0.5-1,0.9
			c-0.3,0.4-0.4,0.7-0.5,1.1c-0.1,0.4-0.1,0.7,0,0.9c0.1,0.3,0.2,0.5,0.5,0.6c0.2,0.2,0.5,0.2,0.7,0.2s0.6-0.1,0.9-0.3
			c0.2-0.1,0.6-0.5,1.3-1c0.6-0.5,1.1-0.9,1.4-1.1c0.4-0.2,0.8-0.3,1.2-0.3c0.4,0,0.7,0.2,1.1,0.4c0.4,0.3,0.6,0.6,0.8,1
			s0.2,0.9,0.1,1.4c-0.1,0.5-0.4,1-0.7,1.5c-0.4,0.5-0.8,0.9-1.3,1.2s-0.9,0.4-1.4,0.4c-0.5,0-1-0.2-1.4-0.5l0.6-1
			c0.5,0.3,0.9,0.4,1.4,0.2s0.9-0.4,1.3-1c0.4-0.6,0.6-1.1,0.6-1.5c0-0.4-0.2-0.7-0.5-0.9c-0.3-0.2-0.5-0.2-0.8-0.2
			c-0.3,0.1-0.8,0.4-1.5,1.1s-1.3,1.1-1.6,1.2c-0.5,0.3-1,0.4-1.4,0.4c-0.4,0-0.8-0.2-1.2-0.4c-0.4-0.3-0.7-0.6-0.8-1.1
			c-0.2-0.5-0.2-1-0.1-1.5c0.1-0.5,0.4-1.1,0.7-1.6c0.5-0.6,1-1.1,1.5-1.4s1-0.4,1.6-0.4C210.7,182.3,211.2,182.4,211.7,182.8z"/>
		<path class="st0" d="M190.3,202.4l8.3,4.6l-1,0.8l-5.9-3.4c-0.5-0.3-0.9-0.5-1.3-0.8c0.2,0.5,0.4,0.9,0.6,1.4l2.3,6.4l-0.9,0.8
			l-3-9L190.3,202.4z"/>
		<path class="st0" d="M182.7,213.6c0.8,1.3,1,2.4,0.8,3.6c-0.2,1.1-0.9,2-2,2.6c-0.7,0.4-1.4,0.6-2.2,0.7c-0.8,0-1.5-0.2-2.1-0.6
			c-0.7-0.4-1.2-1-1.7-1.8c-0.5-0.8-0.7-1.5-0.8-2.3c-0.1-0.8,0.1-1.5,0.5-2.2c0.4-0.7,0.9-1.2,1.5-1.6c0.7-0.4,1.4-0.6,2.2-0.6
			s1.5,0.2,2.1,0.6C181.8,212.4,182.3,212.9,182.7,213.6z M181.6,214.2c-0.6-0.9-1.2-1.5-2-1.7c-0.8-0.2-1.6-0.1-2.3,0.3
			c-0.8,0.5-1.2,1.1-1.4,1.9s0.1,1.7,0.6,2.7c0.4,0.6,0.8,1.1,1.3,1.4c0.5,0.3,1,0.5,1.6,0.5c0.6,0,1.1-0.1,1.6-0.4
			c0.7-0.4,1.2-1,1.4-1.8C182.6,216.3,182.3,215.3,181.6,214.2z"/>
		<path class="st0" d="M165.4,218.2l3.6,8.1l-1.1,0.5l-3.6-8.1L165.4,218.2z"/>
		<path class="st0" d="M156.7,221.7l-1.9,5.4l4.1,3.2l-1.3,0.4l-2.2-1.7c-0.5-0.4-0.8-0.6-1-0.8c-0.1,0.4-0.2,0.8-0.4,1.2l-1,2.8
			l-1.2,0.4l1.8-4.9l-4.6-3.5l1.4-0.4l3,2.4c0.2,0.1,0.4,0.3,0.5,0.5c0.1-0.4,0.2-0.6,0.2-0.8l1.2-3.6L156.7,221.7z"/>
		<path class="st0" d="M140.9,225.8l0.2,1.2l-1.2,0.2l-0.2-1.2c-0.1-0.4-0.1-0.8,0-1.1s0.3-0.6,0.6-0.8l0.4,0.4
			c-0.2,0.1-0.3,0.3-0.4,0.5c-0.1,0.2-0.1,0.5,0,0.9L140.9,225.8z"/>
		<path class="st0" d="M120.1,227.5l-0.4,8.8l-1.2-0.1l-4.3-7.2l-0.4,6.9l-1.1-0.1l0.4-8.8l1.2,0.1l4.3,7.2l0.4-6.9L120.1,227.5z"/>
		<path class="st0" d="M103.7,230.3c-0.3,1.4-0.9,2.5-1.9,3.1c-0.9,0.7-2,0.9-3.2,0.6c-0.8-0.2-1.5-0.5-2-1
			c-0.6-0.5-0.9-1.1-1.1-1.9c-0.2-0.8-0.2-1.6,0-2.4c0.2-0.9,0.5-1.6,1-2.2c0.5-0.6,1.1-1,1.8-1.3s1.5-0.3,2.2-0.1
			c0.8,0.2,1.5,0.5,2.1,1c0.6,0.5,0.9,1.2,1.1,1.9C103.8,228.8,103.9,229.6,103.7,230.3z M102.5,230.1c0.2-1,0.1-1.9-0.3-2.6
			s-1.1-1.2-1.9-1.3c-0.9-0.2-1.6,0-2.3,0.5c-0.7,0.5-1.1,1.3-1.4,2.4c-0.1,0.7-0.2,1.3,0,1.9s0.4,1.1,0.8,1.4s0.9,0.6,1.5,0.8
			c0.8,0.2,1.6,0,2.3-0.4C101.8,232.2,102.3,231.4,102.5,230.1z"/>
		<path class="st0" d="M86,221.2l-2.7,7.3l2.7,1l-0.4,1l-6.6-2.4l0.4-1l2.7,1l2.7-7.3L86,221.2z"/>
		<path class="st0" d="M74.7,216.4l-4.2,7.8l-3.4-1.9c-0.7-0.4-1.2-0.7-1.5-1.1c-0.3-0.3-0.4-0.7-0.5-1.2c0-0.5,0.1-0.9,0.3-1.3
			c0.3-0.5,0.7-0.9,1.3-1.1s1.2-0.1,2,0.2c-0.2-0.3-0.3-0.5-0.4-0.7c-0.1-0.4-0.2-0.9-0.3-1.5l-0.2-2.8l1.3,0.7l0.1,2.2
			c0,0.6,0.1,1.1,0.2,1.5s0.1,0.6,0.2,0.8s0.2,0.3,0.4,0.5c0.1,0.1,0.3,0.2,0.6,0.3l1.2,0.6l1.9-3.4L74.7,216.4z M71.3,220.1
			l-2.2-1.2c-0.5-0.3-0.9-0.4-1.2-0.5s-0.6,0-0.9,0.1c-0.3,0.1-0.4,0.3-0.6,0.6c-0.2,0.4-0.2,0.7-0.1,1.1c0.1,0.4,0.5,0.7,1.1,1
			l2.5,1.3L71.3,220.1z"/>
		<path class="st0" d="M61.1,208.1l-5.3,7l-5.1-3.8l0.6-0.8l4.2,3.1l1.6-2.2l-3.9-2.9l0.6-0.8l3.9,2.9l1.8-2.4l-4.3-3.3l0.6-0.8
			L61.1,208.1z"/>
		<path class="st0" d="M40.4,188.9l-4.7,8.2l-0.8-1l3.5-5.8c0.3-0.5,0.6-0.9,0.8-1.3c-0.5,0.2-0.9,0.4-1.4,0.5l-6.5,2.2l-0.8-0.9
			l9-2.9L40.4,188.9z"/>
		<path class="st0" d="M32.8,178.4l-7.5,4.7l-0.6-1l7.5-4.7L32.8,178.4z"/>
		<path class="st0" d="M25.3,171l-0.6-1c0.4-0.2,0.7-0.5,0.8-0.8c0.2-0.3,0.3-0.7,0.2-1.1s-0.1-0.9-0.3-1.3c-0.2-0.4-0.4-0.7-0.7-1
			c-0.3-0.3-0.5-0.4-0.8-0.5c-0.3-0.1-0.5,0-0.8,0.1c-0.3,0.1-0.4,0.3-0.6,0.5c-0.1,0.2-0.2,0.5-0.1,0.9c0,0.3,0.1,0.8,0.3,1.6
			c0.2,0.8,0.2,1.4,0.2,1.8c0,0.5-0.1,0.9-0.3,1.2c-0.2,0.3-0.5,0.6-0.9,0.7c-0.4,0.2-0.8,0.2-1.3,0.2c-0.5-0.1-0.9-0.3-1.3-0.6
			c-0.4-0.4-0.7-0.8-1-1.3c-0.3-0.6-0.4-1.2-0.4-1.7s0.1-1,0.4-1.4s0.6-0.7,1.1-1l0.6,1c-0.5,0.3-0.8,0.7-0.9,1.1s0,1,0.3,1.6
			c0.3,0.6,0.6,1.1,1,1.2c0.4,0.2,0.7,0.2,1.1,0c0.3-0.1,0.5-0.3,0.6-0.6c0.1-0.3,0-0.9-0.2-1.9c-0.2-1-0.3-1.6-0.3-2
			c0-0.6,0.1-1,0.3-1.4c0.2-0.4,0.6-0.7,1-0.9c0.4-0.2,0.9-0.3,1.4-0.2c0.5,0.1,0.9,0.3,1.4,0.6c0.4,0.4,0.8,0.8,1,1.4
			c0.3,0.7,0.5,1.4,0.5,2s-0.1,1.1-0.4,1.6C26.3,170.4,25.8,170.7,25.3,171z"/>
		<path class="st0" d="M21.8,155.1l-8.4,2.7l-0.4-1.1l8.4-2.7L21.8,155.1z"/>
		<path class="st0" d="M14.9,146.4c-1.4,0.3-2.6,0.1-3.6-0.5c-1-0.6-1.6-1.5-1.8-2.8c-0.1-0.8-0.1-1.6,0.2-2.3
			c0.3-0.7,0.7-1.3,1.3-1.8c0.6-0.5,1.4-0.8,2.2-0.9c0.9-0.2,1.7-0.1,2.5,0.1c0.8,0.2,1.4,0.6,1.9,1.2s0.8,1.3,0.9,2
			c0.2,0.8,0.1,1.6-0.2,2.3c-0.3,0.7-0.7,1.3-1.3,1.8C16.3,145.9,15.6,146.2,14.9,146.4z M14.7,145.2c1-0.2,1.8-0.6,2.3-1.3
			c0.5-0.7,0.7-1.4,0.5-2.3c-0.2-0.9-0.6-1.5-1.3-2s-1.6-0.6-2.7-0.4c-0.7,0.1-1.3,0.4-1.8,0.7s-0.8,0.8-1,1.3
			c-0.2,0.5-0.3,1.1-0.1,1.6c0.2,0.8,0.6,1.5,1.2,1.9C12.4,145.3,13.3,145.4,14.7,145.2z"/>
		<path class="st0" d="M16.7,128.8l-8.8,0.3l0-1.2l6.8-4.8l-6.9,0.2l0-1.1l8.8-0.3l0,1.2l-6.8,4.8l6.9-0.2L16.7,128.8z"/>
	</g>
</g>
</svg>
